<svg xmlns="http://www.w3.org/2000/svg" version="1.1" width="80" height="80" viewBox="0 0 500 500">
    
  <rect width="500" height="500" rx="250" fill="#ece2e1"></rect>

    <path fill="#a1Ac88" d="M440.7 280.2c0 6.7-.4 13.1-1.2 19.2-1.1 7.9-2.9 15.2-5.3 21.9a86.3 86.3 0 01-20.7 32.6C393 374.3 362 385.2 325 390.6c-23 3.3-48.3 4.5-74.9 4.5a529 529 0 01-75-4.6c-68-9.8-115.7-38.4-115.7-110.3 0-96.3 85.4-174.3 190.7-174.3 95.7 0 175 64.4 188.6 148.3a161 161 0 012.1 26z"></path>
  
    <path fill="#65704c" d="M46.1 205.5c2-34.2 73.5-80.3 97.5-80.3S119 235.2 107 243.5s-62.8-3.7-61-38zM454 205.5c-2-34.2-73.5-80.3-97.5-80.3s24.6 110 36.4 118.3 62.9-3.7 61-38z"></path>
  
    <ellipse cx="250" cy="299.3" fill="#838e6a" rx="39.7" ry="27.6"></ellipse>
    <path fill="#65704c" d="M229.1 315.4c-1.2 1.4-3.3 1.6-5.4.9a8.2 8.2 0 01-4.7-4.3c-1-2-.9-4 .3-5.3 1.4-1.5 3.7-1.8 5.9-.8a8.3 8.3 0 014.1 3.7c1.1 2 1.1 4.3-.2 5.8zM281 312a8.5 8.5 0 01-4.7 4.3c-2 .7-4.1.4-5.4-1-1.2-1.4-1.2-3.6-.2-5.6a8.5 8.5 0 014.2-3.8c2.2-1 4.5-.7 5.8.8 1.2 1.3 1.3 3.4.4 5.4z"></path>
    <path fill="#15212a" d="M281 312a26.6 26.6 0 00-6.1-6.1c-.8.3-1.6.8-2.3 1.4-.8.7-1.4 1.5-1.9 2.4a3 3 0 001 1.5 19 19 0 014.6 5c1.3 2.2 2 4.5 2 7 0 10.2-12.7 18.6-28.3 18.6s-28.3-8.4-28.3-18.7c0-2.4.7-4.7 2-6.8a19 19 0 014.5-5.1c.6-.4 1-1 1-1.6a8.3 8.3 0 00-4-3.7c-.3 0-.6.2-.9.4-2 1.7-3.9 3.6-5.3 5.7a19.5 19.5 0 00-3.6 11.1c0 13.8 15.5 25 34.6 25s34.6-11.2 34.6-25c0-4-1.3-7.7-3.5-11z"></path>
  
    <circle cx="169" cy="254.2" r="18.9" fill="#15212a"></circle>
    <circle cx="175.9" cy="258.3" r="6.3" fill="#fff"></circle>
    <circle cx="331" cy="254.2" r="18.9" fill="#15212a"></circle>
    <circle cx="324.1" cy="258.3" r="6.3" fill="#fff"></circle>
  
    <path fill="#15212a" d="M333 196.7h-.4l-27.6-2.1a5 5 0 01.8-10l27.5 2a5 5 0 01-.3 10zM166.6 196.7h.4l27.5-2.1a5 5 0 00-.7-10l-27.6 2a5 5 0 00.4 10z"></path>
  
  </svg>