<svg xmlns="http://www.w3.org/2000/svg" version="1.1" width="80" height="80" viewBox="0 0 500 500">
    
  <rect width="500" height="500" rx="250" fill="#ece2e1"></rect>

    <path fill="#ec8a90" d="M440.7 280.2c0 6.7-.4 13.1-1.2 19.2-1.1 7.9-2.9 15.2-5.3 21.9a86.3 86.3 0 01-20.7 32.6C393 374.3 362 385.2 325 390.6c-23 3.3-48.3 4.5-74.9 4.5a529 529 0 01-75-4.6c-68-9.8-115.7-38.4-115.7-110.3 0-96.3 85.4-174.3 190.7-174.3 95.7 0 175 64.4 188.6 148.3a161 161 0 012.1 26z"></path>
  
    <path fill="#813d14" d="M399.9 72.3c-2.1 5.7-4.5 11.3-7.8 16.8l-.6 1-.6 1-1.4 2.1-1.5 2-1.6 2-1.8 1.8c-.6.6-1.1 1.2-1.8 1.7l-2 1.7-1 .8-1 .7c-5.7 4-12.1 6.5-18.4 8-5 1.3-10 2-15 2.6-1 4.3-2.4 8.5-4.1 12.6-5-2.4-10-4.7-15.1-6.7 2-3.8 3.6-7.9 4.8-12a86.7 86.7 0 003-20.4c.2-7-.2-14-1.1-21.2-1-7.1-2.3-14.2-4-21.3v-.1a5 5 0 019.7-2.6c2.3 7.2 4.3 14.5 5.9 22a147.8 147.8 0 013 33.3c3.4-.1 6.7-.4 10-.8 5.1-.8 9.9-2.2 14-4.5l.8-.5.8-.5 1.5-1 1.4-1.1 1.4-1.2 1.3-1.4 1.3-1.3 1.2-1.5.6-.8.6-.8c3.1-4.2 5.8-9.2 8.3-14.3a5 5 0 019.2 4zM100.3 72.3c2 5.7 4.4 11.3 7.7 16.8l.6 1 .7 1 1.4 2.1 1.5 2 1.5 2 1.8 1.8 1.8 1.7 2 1.7 1 .8 1 .7c5.7 4 12.2 6.5 18.4 8 5 1.3 10.1 2 15 2.6 1 4.3 2.4 8.5 4.2 12.6 4.9-2.4 10-4.7 15-6.7-2-3.8-3.5-7.9-4.7-12a86.7 86.7 0 01-3-20.4c-.2-7 .2-14 1-21.2 1-7.1 2.4-14.2 4-21.3v-.1a5 5 0 00-9.6-2.6c-2.3 7.2-4.4 14.5-6 22a147.8 147.8 0 00-3 33.3c-3.4-.1-6.7-.4-9.9-.8-5.2-.8-10-2.2-14.1-4.5l-.8-.5-.7-.5-1.5-1-1.4-1.1-1.4-1.2-1.3-1.4c-.5-.4-1-.8-1.3-1.3l-1.3-1.5-.6-.8-.6-.8a93.6 93.6 0 01-8.2-14.3 5 5 0 00-9.3 4z"></path>
    <path fill="#ec8a90" d="M408 148.5c-5.9 3.7-13.4 6.7-22.6 9-10.8-10-23-18.8-36.1-26.1a57 57 0 0138.7-18.1c10.8-.9 22.6.5 35.4 3.9 1.6 13.5-3.6 23.8-15.4 31.3zM92 148.5c6 3.7 13.5 6.7 22.6 9 10.8-10 23-18.8 36.2-26.1a57 57 0 00-38.8-18.1c-10.8-.9-22.6.5-35.4 3.9C75 130.7 80.3 141 92 148.5z"></path>
    <path fill="#15212a" d="M408 148.5c19.7-24.5 3.3-31.5-20-35.2 10.8-.9 22.6.5 35.4 3.9 1.6 13.5-3.6 23.8-15.4 31.3zM92 148.5c-19.7-24.5-3.2-31.5 20-35.2-10.8-.9-22.6.5-35.4 3.9C75 130.7 80.3 141 92 148.5z"></path>
  
    <path fill="#ec8a90" d="M309.5 114.6c-18.7-5.6-38.7-8.6-59.4-8.6 -10.6 0-21 0.8-31.1 2.3 -8.1-10.8-13-23.6-14-37 0-0.4-0.1-0.8-0.1-1.2 -0.6-11.3 5.6-23.1 5.6-23.1s1.8 10.8 8.9 24.3c7 13.2 19.6 18.4 20 18.6 -0.1-0.2-3.4-4.4-1.2-21.4 2.6-19.5 18.6-28.4 18.6-28.4s-4 11.7-2 25c2.5 16.2 15.9 27.3 15.9 27.3s0.3-8.3 5.2-21.5c4.9-13.2 15.7-20.7 15.7-20.7s-2.4 9.8-2.4 27.9C289 93.1 304.5 109.6 309.5 114.6z"></path>
  
    <path fill="#fff" d="M210.3 362L193 359a3.2 3.2 0 01-2.6-3.4l1.1-18c.1-1.9 2-3.3 3.8-3l22 4c2 .4 3.2 2.5 2.5 4.3l-6 17.1c-.4 1.5-2 2.4-3.6 2.1zM289.8 362L307 359a3.2 3.2 0 002.6-3.4l-1.1-18c-.1-1.9-2-3.3-3.8-3l-22 4c-2 .4-3.2 2.5-2.5 4.3l6 17.1c.4 1.5 2 2.4 3.6 2.1z"></path>
    <path fill="#ce6c72" d="M275.7 273.1c-9.4 0-18.2-1.5-25.7 2-7.5-3.5-16.3-2-25.7-2-27.9 0-50.5 17.4-50.5 39 0 21.4 22.6 38.8 50.5 38.8 9.4 0 18.2-6.8 25.7-10.2 7.5 3.4 16.3 10.2 25.7 10.2 27.9 0 50.5-17.4 50.5-38.9s-22.6-38.9-50.5-38.9z"></path>
    <path fill="#15212a" d="M219.9 307.1c-.9 0-1.7 0-2.6-.2a4 4 0 01.5-8h2.1c2.6 0 4.6-1 5.5-5.8a4 4 0 014.7-3.2 4 4 0 013.2 4.7c-1.5 8-6.3 12.5-13.4 12.5zM281.1 307.1c.9 0 1.7 0 2.6-.2a4 4 0 00-.5-8h-2.1c-2.6 0-4.6-1-5.5-5.8a4 4 0 00-4.7-3.2 4 4 0 00-3.2 4.7c1.5 8 6.3 12.5 13.4 12.5z"></path>
  
    <circle fill="#15212a" cx="168.62" cy="248.28" r="15.49"></circle>
    <circle fill="#fff" cx="163.62" cy="242.97" r="4.95"></circle>
    <circle fill="#15212a" cx="331.04" cy="248.28" r="15.49"></circle>
    <circle fill="#fff" cx="336.04" cy="242.97" r="4.95"></circle>
  
    <path fill="#15212a" d="M139.8 203c-1 0-2-.3-2.8-.9a5 5 0 01-1.3-7c10.5-15.5 25.8-20.4 45.7-14.5a5 5 0 11-2.9 9.6c-15.6-4.7-26.6-1.3-34.5 10.6a5 5 0 01-4.2 2.2zM361.4 203a5 5 0 01-4.2-2.2c-8-12-19-15.3-34.5-10.6a5 5 0 11-2.9-9.6c19.9-6 35.2-1 45.7 14.6a5 5 0 01-4.1 7.8z"></path>
  
  </svg>