<svg xmlns="http://www.w3.org/2000/svg" version="1.1" width="80" height="80" viewBox="0 0 500 500">
    
  <rect width="500" height="500" rx="250" fill="#b5f4bc"></rect>

    <path fill="#a1Ac88" d="M440.7 280.2c0 6.7-.4 13.1-1.2 19.2-1.1 7.9-2.9 15.2-5.3 21.9a86.3 86.3 0 01-20.7 32.6C393 374.3 362 385.2 325 390.6c-23 3.3-48.3 4.5-74.9 4.5a529 529 0 01-75-4.6c-68-9.8-115.7-38.4-115.7-110.3 0-96.3 85.4-174.3 190.7-174.3 95.7 0 175 64.4 188.6 148.3a161 161 0 012.1 26z"></path>
  
    <path fill="#a1Ac88" d="M156.6 128.2c-21.3 11-40 25.5-55.1 42.6v.1l-.2.2-.2.1-1.6-88.7s1.8 0 5 1.2h.1c5 2 13.2 7.2 23.1 20.7a76.1 76.1 0 0028.9 23.8zM343.4 128.2c21.2 11 40 25.5 55.1 42.6v.1l.2.2.2.1 1.6-88.7s-1.8 0-5 1.2h-.1c-5 2-13.2 7.2-23.1 20.7a76.1 76.1 0 01-28.9 23.8z"></path>
    <path fill="#fec3aa" d="M109.3 160.3c-2.9 3.4-5.4 6.9-7.8 10.5v.1l-.2.2-.2.1c-1 0-6.3-1-23.7-16a46.1 46.1 0 01-13-56.8c5.9-11.9 24-22 40.2-14.7a36.2 36.2 0 0115.8 14.9c12.2 20-1.5 47-11.2 61.7zM390.7 160.3c2.9 3.4 5.4 6.9 7.8 10.5v.1l.2.2.1.1c1.1 0 6.4-1 23.7-16a46.1 46.1 0 0013.1-56.8c-5.9-11.9-24-22-40.2-14.7a36.2 36.2 0 00-15.8 14.9c-12.2 20 1.5 47 11.1 61.7z"></path>
  
    <path fill="#15212a" d="M249.8 294.6s-16.6-.3-16.6 4.9 11.6 18.9 16.6 18.9 16.7-14 16.7-18.9c0-5-16.7-5-16.7-5z"></path>
    <path fill="#15212a" d="M296.2 323l-.1.4a24 24 0 01-3.5 7.6 21.3 21.3 0 01-6 5.6 25 25 0 01-30.3-3.2c-1.8-2-3.1-4.4-3.8-7-.8-2.5-.9-5.2-.6-7.8l.2-1.5-1.5-.2v-.2l-.8.1h-.7v.1l-1.5.2.1 1.5c.4 2.6.3 5.3-.5 7.9-.7 2.5-2 5-3.8 6.9a25 25 0 01-30.3 3.3 21.2 21.2 0 01-6-5.7 24 24 0 01-3.5-7.6l-.1-.5-1 .3.2.4a25 25 0 003.4 8c1.6 2.5 3.7 4.6 6.2 6.3 4.9 3.3 11 4.7 16.8 4.3a25 25 0 0016.1-7.1c2.1-2.2 3.7-4.9 4.6-7.8 1 3 2.6 5.6 4.7 7.8a25 25 0 0016 7c6 .5 12-1 17-4.2a22.6 22.6 0 009.5-14.3l.1-.5-.9-.2z"></path>
    <path fill="#15212a" d="M148.9 311.9l.2-2 50.2 6.4-.2 2zM149.9 332.7l49.1-6.2.2 2-49 6.1zM160 357.1l40-21.8.9 1.8-40 21.8zM304.2 316.3l50.2-6.4.2 2-50.2 6.4zM304.2 328.5l.3-2 49 6.2-.2 2zM302.5 337l1-1.7 39.9 21.8-1 1.8z"></path>
  
    <circle cx="169" cy="254.5" r="17.2" fill="#15212a"></circle>
    <circle cx="175.3" cy="247.8" r="5.9" fill="#fff"></circle>
    <circle cx="331" cy="254.5" r="17.2" fill="#15212a"></circle>
    <circle cx="324.7" cy="247.8" r="5.9" fill="#fff"></circle>
  
    <path fill="#15212a" d="M139.8 203c-1 0-2-.3-2.8-.9a5 5 0 01-1.3-7c10.5-15.5 25.8-20.4 45.7-14.5a5 5 0 11-2.9 9.6c-15.6-4.7-26.6-1.3-34.5 10.6a5 5 0 01-4.2 2.2zM361.4 203a5 5 0 01-4.2-2.2c-8-12-19-15.3-34.5-10.6a5 5 0 11-2.9-9.6c19.9-6 35.2-1 45.7 14.6a5 5 0 01-4.1 7.8z"></path>
  
  </svg>