<svg xmlns="http://www.w3.org/2000/svg" version="1.1" width="80" height="80" viewBox="0 0 500 500">
    
  <rect width="500" height="500" rx="250" fill="#e4e3cd"></rect>

    <path fill="#ec8a90" d="M440.7 280.2c0 6.7-.4 13.1-1.2 19.2-1.1 7.9-2.9 15.2-5.3 21.9a86.3 86.3 0 01-20.7 32.6C393 374.3 362 385.2 325 390.6c-23 3.3-48.3 4.5-74.9 4.5a529 529 0 01-75-4.6c-68-9.8-115.7-38.4-115.7-110.3 0-96.3 85.4-174.3 190.7-174.3 95.7 0 175 64.4 188.6 148.3a161 161 0 012.1 26z"></path>
  
    <path fill="#ec8a90" d="M169 122.4a194.5 194.5 0 00-56.5 37c-29.4-10.7-40.3-32.4-41-60.1 37-5.4 76.7-3 97.4 23.1zM331 122.4a194.5 194.5 0 0156.4 37c29.5-10.7 40.4-32.4 41.1-60.1-37-5.4-76.7-3-97.5 23.1z"></path>
    <path fill="#fec3aa" d="M148.6 132.6c-12.3 7-23.7 15.4-33.9 24.7-20.7-8.3-28.4-24.3-29-44.6 27.2-4 49.4.6 62.9 19.9zM351.4 132.6c12.3 7 23.6 15.4 33.8 24.7 20.8-8.3 28.5-24.3 29-44.6-27.1-4-49.3.6-62.8 19.9z"></path>
  
    <path fill="#fef6f4" d="M332 100.7c-10.2-27.5-29.9-29.9-53.6-21.5C273.2 72.5 266 67 250 66.3c-15.9.6-23.2 6.2-28.4 13-23.8-8.5-43.4-6.1-53.5 21.4-39 19.8-5.9 84.7 33 64.8 10.9 12 24.4 19.1 48.9 5.7 24.5 13.4 38 6.3 48.9-5.7 38.9 19.9 72-45 33-64.8z"></path>
  
    <path fill="#15212a" d="M286 305.4c3-.6 5.7-.6 8.2-.1-5 17.3-18.5 26.5-42 28.8V318c0-8.2 4.9-15.7 12.5-18.6 10-3.8 16.6-11.6 17.3-21.3.5-7.8-5.3-14.8-13.2-15a13.5 13.5 0 00-13.6 11.1c-2.6 1-7.8 1-10.4 0a13.5 13.5 0 00-13.7-11.1c-7.6.2-13.5 7-13 14.6.3 8.1 4.8 15.2 12.5 19.5 1.3.8 2.8 1.5 4.3 2.1a20 20 0 0112.9 18.7v20.4c27.7-1.6 44.5-12 50.3-32 2.3 1 4.5 2.5 6.6 4.6-4-8.2-10.4-9.4-18.7-5.6z"></path>
  
    <circle fill="#15212a" cx="331.04" cy="253.21" r="22.21"></circle>
    <circle fill="#fff" cx="338.81" cy="246.07" r="8.97"></circle>
    <circle fill="#fff" cx="322.5" cy="263.97" r="5.01"></circle>
    <circle fill="#15212a" cx="168.96" cy="253.21" r="22.21"></circle>
    <circle fill="#fff" cx="161.19" cy="246.07" r="8.97"></circle>
    <circle fill="#fff" cx="177.5" cy="263.97" r="5.01"></circle>
  
    <path fill="#15212a" d="M139.8 203c-1 0-2-.3-2.8-.9a5 5 0 01-1.3-7c10.5-15.5 25.8-20.4 45.7-14.5a5 5 0 11-2.9 9.6c-15.6-4.7-26.6-1.3-34.5 10.6a5 5 0 01-4.2 2.2zM361.4 203a5 5 0 01-4.2-2.2c-8-12-19-15.3-34.5-10.6a5 5 0 11-2.9-9.6c19.9-6 35.2-1 45.7 14.6a5 5 0 01-4.1 7.8z"></path>
  
  </svg>